<svg width="48" height="48" viewBox="0 0 48 48" fill="none" xmlns="http://www.w3.org/2000/svg">
<rect width="48" height="48" rx="24" fill="#0095FF"/>
<path d="M22.8462 9.44351C21.7788 10.1215 19.7579 10.5065 18.9356 10.6727C18.7758 10.7097 18.6282 10.7871 18.5069 10.8973C18.3855 11.0076 18.2944 11.1471 18.2422 11.3026C18.076 11.7947 17.3674 14.2465 17.1487 14.8829C17.086 15.0754 16.961 15.2415 16.7935 15.3552C16.6261 15.4688 16.4255 15.5235 16.2235 15.5106C15.2962 15.445 11.7683 14.9988 11.2959 14.9595C11.1157 14.9491 10.9363 14.9906 10.779 15.0789C10.6216 15.1673 10.4928 15.2989 10.4079 15.4581C9.78677 16.7201 9.46526 19.15 9.56587 19.8871C9.59427 20.0715 9.67948 20.2425 9.80964 20.3761C9.9398 20.5098 10.1084 20.5996 10.292 20.6329C10.6616 20.6963 13.8264 21.1556 14.1895 21.2081C14.3136 21.2284 14.4322 21.2744 14.5375 21.3431C14.6429 21.4117 14.7329 21.5016 14.8016 21.607C14.8703 21.7123 14.9163 21.8309 14.9367 21.955C14.9571 22.0791 14.9514 22.2061 14.92 22.3279C12.1817 33.0187 12.5776 40 21.8685 40C24.7315 40 27.3364 38.6877 29.6066 36.5421C28.7982 35.9108 28.1451 35.1028 27.6972 34.18C26.4987 35.2036 25.2564 35.8947 24.0185 36.0763C19.8104 36.7062 21.4158 29.1693 23.6423 21.7155C23.6868 21.5595 23.7813 21.4223 23.9113 21.3251C24.0413 21.2279 24.1996 21.1761 24.3618 21.1775C26.3124 21.1819 28.2604 21.0357 30.1884 20.7401C30.3108 20.7205 30.4263 20.6701 30.5238 20.5935C30.6214 20.517 30.6979 20.4169 30.7461 20.3026C31.166 19.3359 31.621 17.1991 31.6078 16.5451C31.6059 16.4438 31.5836 16.344 31.5422 16.2515C31.5008 16.1591 31.4411 16.0759 31.3667 16.0071C31.2924 15.9383 31.2049 15.8851 31.1095 15.8509C31.0142 15.8168 30.9129 15.8022 30.8117 15.8081C29.4579 15.8868 28.0209 15.9109 26.6037 15.9109C26.4831 15.9115 26.3642 15.8829 26.2571 15.8276C26.1499 15.7723 26.0577 15.6919 25.9884 15.5934C25.919 15.4948 25.8745 15.3809 25.8586 15.2613C25.8427 15.1418 25.856 15.0203 25.8972 14.907C26.4462 13.341 27.3342 10.4737 27.5923 9.76065C27.6624 9.56919 27.6869 9.36403 27.6639 9.16145C27.6409 8.95886 27.571 8.76442 27.4598 8.59355C27.3486 8.42267 27.199 8.28007 27.0231 8.17704C26.8472 8.07401 26.6496 8.0134 26.4462 8H26.339C25.1842 8 23.92 8.79174 22.8396 9.4457" fill="white"/>
<path d="M29.4229 29.4602C29.353 29.6276 29.296 29.8002 29.2523 29.9763L29.2414 30.0004C28.947 31.1042 29.0657 32.2775 29.5751 33.2999C30.0845 34.3224 30.9497 35.1238 32.0081 35.5535C32.7003 35.8366 33.4508 35.9476 34.1953 35.8772H34.2062C35.0341 35.7994 35.8264 35.5025 36.5016 35.0172C37.1769 34.5319 37.7108 33.8756 38.0486 33.1157C38.3863 32.3558 38.5157 31.5197 38.4235 30.6933C38.3312 29.8669 38.0207 29.0799 37.5237 28.4131C37.0267 27.7464 36.3612 27.224 35.5956 26.8995C34.8299 26.575 33.9917 26.4602 33.167 26.5668C32.3423 26.6734 31.5608 26.9976 30.9028 27.5061C30.2448 28.0146 29.734 28.689 29.4229 29.4602" fill="#FE6E46"/>
</svg>
